<svg width="24" height="16" viewBox="0 0 24 16" fill="none" xmlns="http://www.w3.org/2000/svg">
<path opacity="0.7" d="M6.4 0.799805C3.76 0.799805 1.6 2.9598 1.6 5.5998C1.6 7.187 2.3816 8.5998 3.5752 9.475C1.4656 10.5214 0 12.691 0 15.1998H1.6C1.6 12.5406 3.7408 10.3998 6.4 10.3998C9.0592 10.3998 11.2 12.5406 11.2 15.1998H12.8C12.8 12.5406 14.9408 10.3998 17.6 10.3998C20.2592 10.3998 22.4 12.5406 22.4 15.1998H24C24 12.6902 22.5344 10.5214 20.4248 9.475C21.0356 9.02993 21.5328 8.44705 21.876 7.77371C22.2192 7.10037 22.3987 6.35556 22.4 5.5998C22.4 2.9598 20.24 0.799805 17.6 0.799805C14.96 0.799805 12.8 2.9598 12.8 5.5998C12.8 7.187 13.5816 8.5998 14.7752 9.475C13.6063 10.0497 12.6388 10.9647 12 12.0998C11.3612 10.9647 10.3937 10.0497 9.2248 9.475C9.8356 9.02993 10.3328 8.44705 10.676 7.77371C11.0192 7.10037 11.1987 6.35556 11.2 5.5998C11.2 2.9598 9.04 0.799805 6.4 0.799805ZM6.4 2.3998C8.1784 2.3998 9.6 3.8214 9.6 5.5998C9.6 7.3782 8.1784 8.7998 6.4 8.7998C4.6216 8.7998 3.2 7.3782 3.2 5.5998C3.2 3.8214 4.6216 2.3998 6.4 2.3998ZM17.6 2.3998C19.3784 2.3998 20.8 3.8214 20.8 5.5998C20.8 7.3782 19.3784 8.7998 17.6 8.7998C15.8216 8.7998 14.4 7.3782 14.4 5.5998C14.4 3.8214 15.8216 2.3998 17.6 2.3998Z" fill="white"/>
</svg>
