<svg width="25" height="22" viewBox="0 0 25 22" fill="none" xmlns="http://www.w3.org/2000/svg">
<path opacity="0.7" fill-rule="evenodd" clip-rule="evenodd" d="M21.2273 2.13333H3.77273C3.4834 2.13333 3.20592 2.24571 3.00134 2.44575C2.79675 2.64579 2.68182 2.9171 2.68182 3.2V18.1333C2.68182 18.4162 2.79675 18.6875 3.00134 18.8876C3.20592 19.0876 3.4834 19.2 3.77273 19.2H21.2273C21.5166 19.2 21.7941 19.0876 21.9987 18.8876C22.2032 18.6875 22.3182 18.4162 22.3182 18.1333V3.2C22.3182 2.9171 22.2032 2.64579 21.9987 2.44575C21.7941 2.24571 21.5166 2.13333 21.2273 2.13333ZM3.77273 0C2.90475 0 2.07232 0.337142 1.45856 0.937258C0.844804 1.53737 0.5 2.35131 0.5 3.2V18.1333C0.5 18.982 0.844804 19.796 1.45856 20.3961C2.07232 20.9962 2.90475 21.3333 3.77273 21.3333H21.2273C22.0953 21.3333 22.9277 20.9962 23.5414 20.3961C24.1552 19.796 24.5 18.982 24.5 18.1333V3.2C24.5 2.35131 24.1552 1.53737 23.5414 0.937258C22.9277 0.337142 22.0953 0 21.2273 0H3.77273ZM5.95455 5.33333H8.13636V7.46667H5.95455V5.33333ZM11.4091 5.33333C11.1198 5.33333 10.8423 5.44571 10.6377 5.64575C10.4331 5.84579 10.3182 6.1171 10.3182 6.4C10.3182 6.6829 10.4331 6.95421 10.6377 7.15425C10.8423 7.35429 11.1198 7.46667 11.4091 7.46667H17.9545C18.2439 7.46667 18.5214 7.35429 18.7259 7.15425C18.9305 6.95421 19.0455 6.6829 19.0455 6.4C19.0455 6.1171 18.9305 5.84579 18.7259 5.64575C18.5214 5.44571 18.2439 5.33333 17.9545 5.33333H11.4091ZM8.13636 9.6H5.95455V11.7333H8.13636V9.6ZM10.3182 10.6667C10.3182 10.3838 10.4331 10.1125 10.6377 9.91242C10.8423 9.71238 11.1198 9.6 11.4091 9.6H17.9545C18.2439 9.6 18.5214 9.71238 18.7259 9.91242C18.9305 10.1125 19.0455 10.3838 19.0455 10.6667C19.0455 10.9496 18.9305 11.2209 18.7259 11.4209C18.5214 11.621 18.2439 11.7333 17.9545 11.7333H11.4091C11.1198 11.7333 10.8423 11.621 10.6377 11.4209C10.4331 11.2209 10.3182 10.9496 10.3182 10.6667ZM8.13636 13.8667H5.95455V16H8.13636V13.8667ZM10.3182 14.9333C10.3182 14.6504 10.4331 14.3791 10.6377 14.1791C10.8423 13.979 11.1198 13.8667 11.4091 13.8667H17.9545C18.2439 13.8667 18.5214 13.979 18.7259 14.1791C18.9305 14.3791 19.0455 14.6504 19.0455 14.9333C19.0455 15.2162 18.9305 15.4875 18.7259 15.6876C18.5214 15.8876 18.2439 16 17.9545 16H11.4091C11.1198 16 10.8423 15.8876 10.6377 15.6876C10.4331 15.4875 10.3182 15.2162 10.3182 14.9333Z" fill="white"/>
</svg>
