<svg width="288" height="299" viewBox="0 0 288 299" fill="none" xmlns="http://www.w3.org/2000/svg">
<g opacity="0.2">
<path d="M241.353 79.2007C242.806 73.7589 250.528 73.759 251.981 79.2007L257.962 101.603C268.717 141.889 300.183 173.356 340.47 184.111L362.872 190.092C368.314 191.545 368.314 199.267 362.872 200.72L340.47 206.7C300.183 217.456 268.717 248.922 257.962 289.208L251.981 311.611C250.528 317.052 242.806 317.052 241.353 311.611L235.372 289.208C224.617 248.922 193.151 217.456 152.865 206.7L130.462 200.719C125.02 199.267 125.02 191.545 130.462 190.092L152.865 184.111C193.151 173.356 224.617 141.889 235.372 101.603L241.353 79.2007Z" fill="#E9E9E9" stroke="black"/>
<path d="M157.915 21.8426C159.368 16.4008 167.09 16.4008 168.543 21.8426L174.524 44.245C185.279 84.5312 216.745 115.997 257.032 126.753L279.434 132.734C284.876 134.186 284.876 141.909 279.434 143.361L257.032 149.342C216.745 160.098 185.279 191.564 174.524 231.85L168.543 254.252C167.09 259.694 159.368 259.694 157.915 254.252L151.934 231.85C141.179 191.564 109.713 160.098 69.4266 149.342L47.0242 143.361C41.5824 141.909 41.5824 134.186 47.0242 132.734L69.4266 126.753C109.713 115.997 141.179 84.5312 151.934 44.2449L157.915 21.8426Z" stroke="black"/>
<path d="M271.455 19.707C271.638 17.9085 274.258 17.9085 274.44 19.707L274.897 24.2211C275.734 32.492 282.275 39.0324 290.546 39.8696L295.06 40.3266C296.858 40.5086 296.858 43.1292 295.06 43.3113L290.546 43.7683C282.275 44.6055 275.734 51.1459 274.897 59.4168L274.44 63.9309C274.258 65.7294 271.638 65.7294 271.455 63.9309L270.999 59.4168C270.161 51.1459 263.621 44.6055 255.35 43.7683L250.836 43.3113C249.037 43.1292 249.037 40.5086 250.836 40.3266L255.35 39.8696C263.621 39.0324 270.161 32.492 270.999 24.2211L271.455 19.707Z" fill="#E9E9E9" stroke="black"/>
<path d="M24.7443 82.9721C24.8525 81.9035 26.4094 81.9035 26.5176 82.9721C27.1073 88.7971 31.7136 93.4034 37.5386 93.9931C38.6072 94.1013 38.6072 95.6582 37.5386 95.7664C31.7136 96.3561 27.1073 100.962 26.5176 106.787C26.4094 107.856 24.8525 107.856 24.7443 106.787C24.1547 100.962 19.5484 96.3561 13.7233 95.7664C12.6547 95.6582 12.6547 94.1013 13.7233 93.9931C19.5484 93.4034 24.1547 88.7971 24.7443 82.9721Z" fill="#E9E9E9" stroke="black"/>
</g>
</svg>
