<svg width="225" height="226" viewBox="0 0 225 226" fill="none" xmlns="http://www.w3.org/2000/svg">
<g opacity="0.2">
<path d="M99.2074 8.4932C100.66 3.05143 108.382 3.05143 109.835 8.49321L111.907 16.2544C122.663 56.5406 154.129 88.0067 194.415 98.7621L202.176 100.834C207.618 102.287 207.618 110.009 202.176 111.462L194.415 113.534C154.129 124.289 122.663 155.755 111.907 196.042L109.835 203.803C108.382 209.245 100.66 209.245 99.2074 203.803L97.1354 196.042C86.38 155.755 54.9139 124.289 14.6276 113.534L6.86649 111.462C1.42472 110.009 1.42472 102.287 6.8665 100.834L14.6277 98.7621C54.9139 88.0067 86.38 56.5406 97.1354 16.2544L99.2074 8.4932Z" fill="#E9E9E9" stroke="black"/>
<path d="M26.9814 -41.1574C28.4342 -46.5992 36.1563 -46.5992 37.6091 -41.1574L39.6812 -33.3963C50.4365 6.88996 81.9027 38.3561 122.189 49.1115L129.95 51.1835C135.392 52.6363 135.392 60.3585 129.95 61.8113L122.189 63.8833C81.9026 74.6387 50.4365 106.105 39.6812 146.391L37.6091 154.152C36.1563 159.594 28.4342 159.594 26.9813 154.152L24.9093 146.391C14.154 106.105 -17.3122 74.6387 -57.5984 63.8833L-65.3596 61.8113C-70.8014 60.3585 -70.8014 52.6363 -65.3596 51.1835L-57.5984 49.1115C-17.3122 38.3561 14.154 6.88995 24.9093 -33.3963L26.9814 -41.1574Z" stroke="black"/>
</g>
</svg>
