<svg width="20" height="18" viewBox="0 0 20 18" fill="none" xmlns="http://www.w3.org/2000/svg">
<path d="M15.3503 10.2085H4.65048C4.28688 10.2085 3.99219 9.88927 3.99219 9.49537C3.99219 9.10148 4.28688 8.78223 4.65048 8.78223H15.3503C15.7139 8.78223 16.0086 9.10148 16.0086 9.49537C16.0086 9.88927 15.7139 10.2085 15.3503 10.2085Z" fill="#646464"/>
<path d="M15.3503 6.80618H4.65048C4.28688 6.80618 3.99219 6.48692 3.99219 6.09303C3.99219 5.69913 4.28688 5.37988 4.65048 5.37988H15.3503C15.7139 5.37988 16.0086 5.69913 16.0086 6.09303C16.0086 6.48692 15.7139 6.80618 15.3503 6.80618Z" fill="#646464"/>
<path d="M5.58776 17.5C5.41923 17.5 5.25071 17.4303 5.12234 17.291L3.08779 15.0872H2.30443C1.10283 15.0872 0.125488 14.0284 0.125488 12.7267V2.86028C0.125488 1.55879 1.10283 0.5 2.30421 0.5H17.6955C18.8968 0.5 19.8742 1.55879 19.8742 2.86028V12.7267C19.8742 14.0284 18.8968 15.0872 17.6955 15.0872H8.08772L6.05317 17.291C5.92458 17.4303 5.75606 17.5 5.58776 17.5ZM2.30421 1.92629C1.82892 1.92629 1.44207 2.34515 1.44207 2.86028V12.7267C1.44207 13.2418 1.82892 13.6609 2.30421 13.6609H3.36032C3.53477 13.6609 3.70241 13.736 3.82573 13.8698L5.58754 15.7785L7.34934 13.8698C7.47288 13.736 7.6403 13.6609 7.81475 13.6609H17.6952C18.1705 13.6609 18.5574 13.2418 18.5574 12.7267V2.86028C18.5574 2.34515 18.1705 1.92629 17.6952 1.92629H2.30421Z" fill="#646464"/>
</svg>
