<svg width="292" height="353" viewBox="0 0 292 353" fill="none" xmlns="http://www.w3.org/2000/svg">
<path d="M192 0.95877L229.655 62.568L229.891 62.9549L230.299 62.7573L295.285 31.2859L293.653 103.472L293.643 103.926L294.093 103.98L365.777 112.639L325.378 172.484L325.124 172.86L325.473 173.149L381.097 219.188L314.756 247.691L314.339 247.87L314.477 248.302L336.379 317.105L265.16 305.217L264.712 305.143L264.595 305.581L245.823 375.303L192.336 326.798L192 326.493L191.664 326.798L138.177 375.303L119.405 305.581L119.288 305.143L118.84 305.217L47.6207 317.105L69.5233 248.302L69.6608 247.87L69.2442 247.691L2.90331 219.188L58.5266 173.149L58.8759 172.86L58.6222 172.484L18.2228 112.639L89.9068 103.98L90.357 103.926L90.3467 103.472L88.7153 31.2859L153.701 62.7573L154.109 62.9549L154.345 62.568L192 0.95877Z" fill="#F8EED5" stroke="#111111"/>
<path d="M192 68.4183L216.274 108.136L216.511 108.523L216.919 108.325L258.813 88.0364L257.761 134.573L257.751 135.026L258.201 135.08L304.413 140.662L278.369 179.243L278.116 179.618L278.465 179.908L314.323 209.588L271.556 227.963L271.139 228.142L271.276 228.574L285.396 272.929L239.483 265.265L239.036 265.19L238.918 265.628L226.817 310.576L192.335 279.306L192 279.002L191.664 279.306L157.183 310.576L145.081 265.628L144.963 265.19L144.516 265.265L98.6027 272.929L112.723 228.574L112.86 228.142L112.444 227.963L69.6757 209.588L105.534 179.908L105.884 179.618L105.63 179.243L79.5856 140.662L125.798 135.08L126.248 135.026L126.238 134.573L125.186 88.0364L167.08 108.325L167.488 108.523L167.725 108.136L192 68.4183Z" fill="#EDD5BF" stroke="#111111"/>
<path d="M192 126.364L204.782 147.277L205.018 147.664L205.426 147.466L227.485 136.784L226.932 161.287L226.921 161.74L227.371 161.795L251.704 164.734L237.991 185.048L237.737 185.424L238.086 185.713L256.968 201.341L234.448 211.016L234.032 211.195L234.169 211.627L241.604 234.982L217.429 230.947L216.982 230.872L216.864 231.31L210.492 254.977L192.336 238.512L192 238.208L191.664 238.512L173.508 254.977L167.136 231.31L167.018 230.872L166.571 230.947L142.396 234.982L149.83 211.627L149.968 211.195L149.551 211.016L127.032 201.341L145.913 185.713L146.263 185.424L146.009 185.048L132.295 164.734L156.628 161.795L157.078 161.74L157.068 161.287L156.514 136.784L178.574 147.466L178.982 147.664L179.218 147.277L192 126.364Z" fill="#DC7E7E" stroke="#111111"/>
</svg>
