<svg width="325" height="311" viewBox="0 0 325 311" fill="none" xmlns="http://www.w3.org/2000/svg">
<path d="M189 0.958783L197.102 14.215L197.338 14.6019L197.747 14.4042L211.729 7.63268L211.378 23.1648L211.368 23.6181L211.818 23.6724L227.242 25.5354L218.549 38.4121L218.296 38.7879L218.645 39.077L230.613 48.9831L216.339 55.1161L215.922 55.295L216.06 55.7271L220.773 70.5311L205.449 67.9733L205.001 67.8986L204.883 68.3364L200.844 83.3382L189.336 72.9016L189 72.597L188.664 72.9016L177.156 83.3382L173.117 68.3364L172.999 67.8986L172.551 67.9733L157.227 70.5311L161.94 55.7271L162.078 55.295L161.661 55.1161L147.387 48.9831L159.355 39.077L159.704 38.7879L159.451 38.4121L150.758 25.5354L166.182 23.6724L166.632 23.6181L166.622 23.1648L166.271 7.63268L180.253 14.4042L180.662 14.6019L180.898 14.215L189 0.958783Z" fill="#B9D8EF" stroke="#111111"/>
<path d="M146.984 341.405L56.7583 84.5191L325.006 134.591L146.984 341.405Z" fill="#D8EEFF" stroke="black"/>
<circle cx="118.188" cy="118.188" r="96" transform="rotate(15 118.188 118.188)" stroke="black"/>
</svg>
