<svg width="63" height="63" viewBox="0 0 63 63" fill="none" xmlns="http://www.w3.org/2000/svg">
<rect width="63" height="63" rx="8" fill="#F6F6F6"/>
<g opacity="0.5">
<path d="M39.6074 39.5085H23.4924C22.734 39.5085 22.1172 38.8914 22.1172 38.1331V26.7234C22.1172 25.965 22.734 25.348 23.4924 25.348H39.6074C40.3658 25.348 40.9829 25.965 40.9829 26.7234V38.1331C40.9829 38.8914 40.3658 39.5085 39.6074 39.5085ZM23.4924 26.27C23.2425 26.27 23.0392 26.4735 23.0392 26.7234V38.1331C23.0392 38.3832 23.2425 38.5865 23.4924 38.5865H39.6074C39.8575 38.5865 40.0608 38.3832 40.0608 38.1331V26.7234C40.0608 26.4735 39.8575 26.27 39.6074 26.27H23.4924Z" fill="black"/>
<path d="M39.6074 39.5085H23.4924C22.734 39.5085 22.1172 38.8915 22.1172 38.1331C22.1172 38.0248 22.1555 37.9199 22.2251 37.8369L25.6151 33.7947C25.9906 33.3471 26.5409 33.0792 27.125 33.0598C27.7079 33.0437 28.2759 33.2712 28.6804 33.6933L28.8943 33.9164C29.1198 34.1518 29.434 34.2806 29.7611 34.2661C30.0865 34.253 30.3913 34.1008 30.5971 33.8484L32.3107 31.7489C32.6938 31.2794 33.2613 31.0035 33.8669 30.992C34.4821 30.9747 35.0505 31.2345 35.4511 31.6886L40.8674 37.8284C40.9416 37.9125 40.9826 38.0211 40.9826 38.1333C40.9829 38.8915 40.3658 39.5085 39.6074 39.5085Z" fill="black"/>
<path d="M29.4002 31.6908C28.3653 31.6908 27.5234 30.849 27.5234 29.8141C27.5234 28.7793 28.3653 27.9373 29.4002 27.9373C30.435 27.9373 31.277 28.7791 31.277 29.8141C31.277 30.849 30.435 31.6908 29.4002 31.6908Z" fill="black"/>
<path d="M42.4004 36.7141C42.1459 36.7141 41.9394 36.5076 41.9394 36.2531V24.8434C41.9394 24.5935 41.7361 24.39 41.486 24.39H25.3712C25.1167 24.39 24.9102 24.1835 24.9102 23.929C24.9102 23.6745 25.1167 23.468 25.3712 23.468H41.486C42.2443 23.468 42.8614 24.085 42.8614 24.8434V36.2531C42.8614 36.5076 42.6549 36.7141 42.4004 36.7141Z" fill="black"/>
</g>
</svg>
